# xmcd CD database file
#
# Track frame offsets:
#	150
#	17900
#	38082
#	58362
#	75380
#	95245
#	117987
#	137650
#	157025
#	175540
#	192140
#	213717
#	239180
#
# Disc length: 3461 seconds
#
# Revision: 5
# Processed by: cddbd v1.5.1PL0 Copyright (c) Steve Scherf et al.
# Submitted via: CDex 1.51
#
DISCID=bb0d830d
DTITLE=Mya - Mya
DYEAR=1998
DGENRE=Hip-Hop
TTITLE0=What Cha Say
TTITLE1=Movin' On
TTITLE2=Baby It's Yours
TTITLE3=Keep On Lovin' Me
TTITLE4=It's All About Me
TTITLE5=If You Died I Wouldn't Cry Cause You Never Loved Me Anyway
TTITLE6=We're Gonna Make Ya Dance
TTITLE7=If You Were Mine
TTITLE8=Bye Bye
TTITLE9=Anytime You Want Me
TTITLE10=Don't Be Afraid
TTITLE11=My First Night With You
TTITLE12=Movin' On (Remix Featuring Silkk The Shocker)
EXTD=YEAR: 1998
EXTT0=
EXTT1=
EXTT2=
EXTT3=
EXTT4=
EXTT5=
EXTT6=
EXTT7=
EXTT8=
EXTT9=
EXTT10=
EXTT11=
EXTT12=
PLAYORDER=
